<svg width="75" height="75" viewBox="0 0 75 75" fill="none" xmlns="http://www.w3.org/2000/svg">
<path d="M65.625 25C65.6238 23.904 65.3347 22.8275 64.7859 21.8786C64.2375 20.9298 63.4491 20.1418 62.5 19.5938L40.625 7.09375C39.675 6.54519 38.5972 6.25641 37.5 6.25641C36.4028 6.25641 35.325 6.54519 34.375 7.09375L12.5 19.5938C11.5508 20.1418 10.7624 20.9298 10.2139 21.8786C9.66544 22.8275 9.37613 23.904 9.375 25V50C9.37613 51.0959 9.66544 52.1725 10.2139 53.1213C10.7624 54.0703 11.5508 54.8581 12.5 55.4062L34.375 67.9062C35.325 68.4547 36.4028 68.7437 37.5 68.7437C38.5972 68.7437 39.675 68.4547 40.625 67.9062L62.5 55.4062C63.4491 54.8581 64.2375 54.0703 64.7859 53.1213C65.3347 52.1725 65.6238 51.0959 65.625 50V25Z" stroke="black" stroke-width="6" stroke-linecap="round" stroke-linejoin="round"/>
<path d="M10.3127 21.875L37.5001 37.5L64.6879 21.875" stroke="black" stroke-width="2" stroke-linecap="round" stroke-linejoin="round"/>
<path d="M37.5 68.75V37.5" stroke="black" stroke-width="2" stroke-linecap="round" stroke-linejoin="round"/>
<path d="M36.5 37L11 21.875L37.5 6.25L64.0625 21.875L65 53.5L37.5 68.5L36.5 37Z" fill="black"/>
</svg>
